<?xml version="1.0" encoding="UTF-8"?>
<svg version="1.1" xmlns="http://www.w3.org/2000/svg" width="512" height="512">
<path d="M0 0 C1.08696671 -0.00671722 2.17393341 -0.01343445 3.2938385 -0.02035522 C6.88181144 -0.03932892 10.46959722 -0.0432593 14.05761719 -0.04541016 C16.55857418 -0.05183906 19.05953042 -0.05856749 21.56048584 -0.06558228 C26.80254322 -0.07755386 32.04455333 -0.08134908 37.28662109 -0.08007812 C42.658161 -0.07901079 48.02941297 -0.09307561 53.40087891 -0.12109375 C59.89823888 -0.15449744 66.39534049 -0.16818725 72.89278412 -0.16685867 C75.36301892 -0.16921237 77.83325662 -0.17802273 80.30344391 -0.19352341 C83.76639638 -0.2132172 87.2284377 -0.20733089 90.69140625 -0.1953125 C92.20828789 -0.21217102 92.20828789 -0.21217102 93.7558136 -0.22937012 C105.03397807 -0.13039038 113.73965479 4.16142467 121.79199219 11.91552734 C128.27255026 18.91453006 131.24199702 27.12839504 131.20887756 36.56846619 C131.20621887 38.50482437 131.20621887 38.50482437 131.20350647 40.4803009 C131.19665202 41.9091493 131.18976936 43.33799756 131.18286133 44.7668457 C131.1793443 46.273416 131.1763775 47.77998766 131.17391968 49.28656006 C131.16824724 52.53153754 131.16023475 55.77649831 131.15089607 59.02146721 C131.13770047 64.16273497 131.13945563 69.30392791 131.14512634 74.44520569 C131.14650647 75.74826303 131.14650647 75.74826303 131.14791447 77.07764477 C131.15088593 79.7534235 131.15405085 82.42920197 131.15722656 85.10498047 C131.17000187 96.17225782 131.17211308 107.23918167 131.12866211 118.30639648 C131.09706607 126.38108894 131.09395303 134.45524226 131.12342161 142.5299502 C131.13791178 146.79799947 131.13833296 151.06497073 131.10402107 155.33292961 C131.07195623 159.35624167 131.07788127 163.37779515 131.11152267 167.40107727 C131.1172884 168.86789653 131.10971653 170.33484671 131.08693123 171.80150032 C130.92126359 183.22663608 133.66853131 189.24794896 140.10449219 198.29052734 C153.33711171 222.32518363 156.72376613 254.14847423 149.29589844 280.53271484 C139.59226316 311.13893495 120.62936149 336.53981799 91.87402344 351.53662109 C83.24325763 355.86370144 74.54798619 359.15957264 65.10449219 361.29052734 C63.66203125 361.62697266 63.66203125 361.62697266 62.19042969 361.97021484 C33.80947275 367.43673161 3.44957883 361.80150399 -20.89550781 346.29052734 C-32.03086641 338.63735992 -32.03086641 338.63735992 -35.57420254 334.17772675 C-38.81544681 331.54262557 -41.74646396 331.74207278 -45.74342346 331.79846191 C-46.5394562 331.79378293 -47.33548894 331.78910394 -48.15564388 331.78428316 C-50.82650278 331.77333918 -53.4964218 331.79085139 -56.16723633 331.80810547 C-58.0809914 331.80591985 -59.99474514 331.80192349 -61.90849304 331.79624939 C-66.03262332 331.78767627 -70.15649353 331.79148018 -74.28061104 331.80467224 C-80.80759838 331.82499445 -87.33432315 331.81503639 -93.86131287 331.80041504 C-108.90394885 331.77135962 -123.94650823 331.78209583 -138.98915863 331.79311371 C-152.75707804 331.80279548 -166.52486039 331.80401282 -180.2927565 331.77323294 C-186.77442353 331.75988641 -193.25569675 331.76578247 -199.73734009 331.78659821 C-203.78155229 331.79561461 -207.82561436 331.78808208 -211.86981392 331.77618599 C-213.73738112 331.77406364 -215.60497106 331.77872675 -217.47249985 331.79089165 C-232.13070707 331.88094367 -243.69080575 330.3670897 -254.57910156 319.63037109 C-261.64954561 311.8899099 -264.04507872 304.28543775 -264.04267883 293.94908142 C-264.04635552 293.0999625 -264.05003221 292.25084358 -264.05382031 291.37599379 C-264.06484842 288.5258029 -264.06869954 285.67564848 -264.07250977 282.82543945 C-264.07877516 280.78360885 -264.08542203 278.74177939 -264.09242249 276.69995117 C-264.11345918 269.98926588 -264.12382565 263.27858038 -264.13378906 256.56787109 C-264.137837 254.25634817 -264.14195393 251.94482537 -264.14613914 249.63330269 C-264.16519126 238.77143636 -264.17942132 227.90957683 -264.18775111 217.04769701 C-264.19751898 204.517965 -264.22382678 191.98840987 -264.26425201 179.45874017 C-264.29443812 169.7693943 -264.30922243 160.08009905 -264.31253213 150.39070708 C-264.31488008 144.60613982 -264.32380734 138.82176152 -264.3489933 133.0372448 C-264.37232203 127.59121798 -264.37648783 122.14550389 -264.36623192 116.69944 C-264.36573759 114.70608796 -264.37202744 112.71272027 -264.38578796 110.71941566 C-264.47942756 96.34487916 -263.81171296 85.34786402 -253.32910156 74.52099609 C-245.61569645 67.4514065 -238.37972522 64.04650152 -227.74740601 64.03224182 C-227.06299962 64.02856612 -226.37859323 64.02489041 -225.67344725 64.02110332 C-223.39891974 64.01118844 -221.12463984 64.01526093 -218.85009766 64.01928711 C-217.21187584 64.01489645 -215.57365624 64.00959306 -213.93544006 64.00344849 C-210.41711437 63.99197641 -206.89884869 63.98649115 -203.38050461 63.98556709 C-197.81689755 63.9836224 -192.25341435 63.96554885 -186.68984985 63.94480896 C-172.87515665 63.89568222 -159.06043002 63.86471449 -145.2456665 63.84350586 C-134.5003054 63.82698732 -123.75505101 63.80419925 -113.00976145 63.76048511 C-107.47904216 63.73870042 -101.94852558 63.73065157 -96.41776633 63.73287785 C-92.97912868 63.73121198 -89.54062367 63.71716955 -86.10203362 63.69966507 C-84.50770595 63.69406299 -82.91335082 63.69358271 -81.31902122 63.69860268 C-79.14225783 63.70473817 -76.96633276 63.6925244 -74.78964233 63.67579651 C-73.5718276 63.67378518 -72.35401287 63.67177385 -71.09929466 63.66970158 C-66.72902756 63.1524722 -64.05492858 61.6756648 -61.24038696 58.31318665 C-60.75742157 57.56232285 -60.27445618 56.81145905 -59.77685547 56.0378418 C-59.21922516 55.18297684 -58.66159485 54.32811188 -58.08706665 53.44734192 C-57.50049286 52.52547592 -56.91391907 51.60360992 -56.30957031 50.65380859 C-55.68956146 49.70040085 -55.06955261 48.7469931 -54.43075562 47.76469421 C-52.45052035 44.71724103 -50.48451594 41.66095912 -48.52050781 38.60302734 C-46.56218219 35.56395499 -44.60070366 32.52707406 -42.63168335 29.49491882 C-41.40848784 27.61034999 -40.1914907 25.72173808 -38.98184204 23.82844543 C-34.32619228 16.64085949 -29.44960222 9.20063574 -21.83300781 4.91552734 C-20.63998047 4.22330078 -20.63998047 4.22330078 -19.42285156 3.51708984 C-12.83779258 0.32124978 -7.20310232 -0.00640475 0 0 Z " fill="#FABF2D" transform="translate(311.8955078125,79.70947265625)"/>
<path d="M0 0 C7.21850309 6.21532744 14.54616665 12.928703 20.1875 20.625 C20.1875 21.285 20.1875 21.945 20.1875 22.625 C21.1775 22.955 22.1675 23.285 23.1875 23.625 C24.75905897 25.97784829 26.14790776 28.27488664 27.5 30.75 C28.09385498 31.82556152 28.09385498 31.82556152 28.69970703 32.92285156 C42.41337127 58.30120381 47.29008331 89.76620243 39.37890625 117.8671875 C29.67527098 148.47340761 10.7123693 173.87429065 -18.04296875 188.87109375 C-26.67373455 193.1981741 -35.369006 196.4940453 -44.8125 198.625 C-46.25496094 198.96144531 -46.25496094 198.96144531 -47.7265625 199.3046875 C-77.89607663 205.1157021 -108.74460868 198.24206752 -134.14453125 181.41796875 C-158.82911541 163.41941464 -175.86852891 136.24019897 -181.125 106.125 C-184.69919412 76.12238971 -179.00464139 45.36092381 -160.14453125 21.09375 C-157.4894871 17.82230583 -154.68160257 14.70874089 -151.8125 11.625 C-150.99910156 10.73039062 -150.18570312 9.83578125 -149.34765625 8.9140625 C-136.08574044 -5.05716162 -118.1925651 -14.91065632 -99.8125 -20.375 C-98.7709375 -20.6946875 -97.729375 -21.014375 -96.65625 -21.34375 C-63.61268385 -29.68184613 -26.54288098 -21.05384327 0 0 Z " fill="#059669" transform="translate(421.8125,242.375)"/>
<path d="M0 0 C0.83819275 -0.00700928 1.6763855 -0.01401855 2.53997803 -0.02124023 C5.29855923 -0.03878158 8.05610642 -0.02721036 10.81469727 -0.01367188 C12.73991593 -0.01636816 14.66513327 -0.02025171 16.59034729 -0.02526855 C20.62107333 -0.03115859 24.65144423 -0.02261751 28.68212891 -0.00390625 C33.83816823 0.0188676 38.99337393 0.00576695 44.14938259 -0.01819611 C48.12407155 -0.03268054 52.09856434 -0.0280357 56.07325935 -0.01768494 C57.97378705 -0.01502417 59.87433279 -0.01826447 61.7748394 -0.02760315 C64.43630714 -0.03781069 67.09644342 -0.02220892 69.7578125 0 C70.53673355 -0.00809692 71.3156546 -0.01619385 72.11817932 -0.02453613 C77.65300495 0.06063492 80.86423044 1.38392901 85.44360352 4.51757812 C88.93175227 8.18460631 89.73640252 11.09154163 89.94360352 16.01757812 C89.743301 20.93834322 88.87277424 23.8176834 85.44360352 27.51757812 C79.74548578 31.82023846 75.56686854 32.66972781 68.5949707 32.69458008 C67.79623032 32.70115128 66.99748993 32.70772247 66.17454529 32.7144928 C63.52985539 32.73421095 60.88522227 32.74588558 58.24047852 32.75585938 C57.33626411 32.7599349 56.43204971 32.76401043 55.50043488 32.76820946 C50.71375253 32.78906468 45.9270988 32.80336832 41.14038086 32.81274414 C36.20293537 32.82380259 31.26594129 32.8581975 26.32865524 32.89791584 C22.5264402 32.92409548 18.72433246 32.93243721 14.92203522 32.93602562 C13.10241907 32.94088872 11.28280762 32.95249484 9.46327972 32.97106361 C6.9117637 32.99548231 4.36141221 32.99448525 1.80981445 32.98754883 C1.06358322 33.00035889 0.31735199 33.01316895 -0.45149231 33.02636719 C-5.89653403 32.97263489 -9.05103386 31.59465308 -13.55639648 28.51757812 C-18.23265059 23.34908674 -18.91424722 20.1223905 -18.83374023 13.27929688 C-18.44249618 9.38338777 -17.20136169 7.37135637 -14.55639648 4.51757812 C-9.59789402 0.48081423 -6.12808904 -0.06353668 0 0 Z " fill="#34d399" transform="translate(316.556396484375,314.482421875)"/>
</svg>
